<mxfile host="65bd71144e">
    <diagram id="G6bSS4ozHyCaoRy3qroX" name="Page-1">
        <mxGraphModel dx="781" dy="611" grid="1" gridSize="10" guides="1" tooltips="1" connect="1" arrows="1" fold="1" page="1" pageScale="1" pageWidth="850" pageHeight="1100" math="0" shadow="0">
            <root>
                <mxCell id="0"/>
                <mxCell id="1" parent="0"/>
                <mxCell id="25" value="&lt;br&gt;&lt;h1 style=&quot;border-color: rgb(0, 0, 0); color: rgb(240, 240, 240); font-family: Helvetica; font-style: normal; font-variant-ligatures: normal; font-variant-caps: normal; letter-spacing: normal; orphans: 2; text-indent: 0px; text-transform: none; widows: 2; word-spacing: 0px; -webkit-text-stroke-width: 0px; background-color: rgb(42, 37, 47); text-decoration-thickness: initial; text-decoration-style: initial; text-decoration-color: initial; text-align: center;&quot;&gt;&lt;br&gt;&lt;/h1&gt;&lt;br&gt;" style="rounded=0;whiteSpace=wrap;html=1;fontColor=#000000;fillColor=#FF9933;gradientDirection=south;strokeColor=#BD7000;gradientColor=default;" vertex="1" parent="1">
                    <mxGeometry x="350" y="40" width="120" height="300" as="geometry"/>
                </mxCell>
                <mxCell id="28" value="Actor" style="shape=umlActor;verticalLabelPosition=bottom;verticalAlign=top;html=1;outlineConnect=0;fontColor=#ffffff;fillColor=#e51400;gradientDirection=north;strokeColor=#B20000;" vertex="1" parent="1">
                    <mxGeometry x="388" y="210" width="75" height="120" as="geometry"/>
                </mxCell>
                <mxCell id="4" value="" style="rounded=0;whiteSpace=wrap;html=1;fillColor=#ffe0cc;strokeColor=#d6b656;gradientColor=#FF8000;" vertex="1" parent="1">
                    <mxGeometry x="80" y="440" width="600" height="440" as="geometry"/>
                </mxCell>
                <mxCell id="18" value="Logo" style="ellipse;whiteSpace=wrap;html=1;aspect=fixed;fillColor=#000000;gradientColor=#b3b3b3;strokeColor=#666666;" vertex="1" parent="1">
                    <mxGeometry x="90" y="450" width="60" height="60" as="geometry"/>
                </mxCell>
                <mxCell id="22" value="Footer" style="rounded=0;whiteSpace=wrap;html=1;" vertex="1" parent="1">
                    <mxGeometry x="80" y="850" width="600" height="30" as="geometry"/>
                </mxCell>
                <mxCell id="26" value="Logo" style="ellipse;whiteSpace=wrap;html=1;aspect=fixed;fillColor=#000000;gradientColor=#b3b3b3;strokeColor=#666666;" vertex="1" parent="1">
                    <mxGeometry x="395" y="50" width="30" height="30" as="geometry"/>
                </mxCell>
                <mxCell id="27" value="&lt;font color=&quot;#000000&quot;&gt;welcome&lt;/font&gt;" style="rounded=1;whiteSpace=wrap;html=1;fillColor=#f9f7ed;gradientDirection=north;strokeColor=none;" vertex="1" parent="1">
                    <mxGeometry x="375" y="90" width="70" height="20" as="geometry"/>
                </mxCell>
                <mxCell id="29" value="Naruto" style="shape=umlActor;verticalLabelPosition=bottom;verticalAlign=top;html=1;outlineConnect=0;fontColor=#3a3636;fillColor=#f8e8e8;gradientColor=#FCFFFE;gradientDirection=north;" vertex="1" parent="1">
                    <mxGeometry x="540" y="630" width="110" height="190" as="geometry"/>
                </mxCell>
                <mxCell id="30" value="List Item" style="text;strokeColor=none;fillColor=none;align=left;verticalAlign=top;spacingLeft=4;spacingRight=4;overflow=hidden;rotatable=0;points=[[0,0.5],[1,0.5]];portConstraint=eastwest;whiteSpace=wrap;html=1;fontColor=#3a3636;" vertex="1" parent="1">
                    <mxGeometry x="230" y="460" width="60" height="26" as="geometry"/>
                </mxCell>
                <mxCell id="31" value="List Item" style="text;strokeColor=none;fillColor=none;align=left;verticalAlign=top;spacingLeft=4;spacingRight=4;overflow=hidden;rotatable=0;points=[[0,0.5],[1,0.5]];portConstraint=eastwest;whiteSpace=wrap;html=1;fontColor=#3a3636;" vertex="1" parent="1">
                    <mxGeometry x="380" y="460" width="60" height="26" as="geometry"/>
                </mxCell>
                <mxCell id="32" value="List Item" style="text;strokeColor=none;fillColor=none;align=left;verticalAlign=top;spacingLeft=4;spacingRight=4;overflow=hidden;rotatable=0;points=[[0,0.5],[1,0.5]];portConstraint=eastwest;whiteSpace=wrap;html=1;fontColor=#3a3636;" vertex="1" parent="1">
                    <mxGeometry x="490" y="460" width="60" height="26" as="geometry"/>
                </mxCell>
                <mxCell id="37" value="menu" style="text;strokeColor=none;fillColor=none;align=left;verticalAlign=top;spacingLeft=4;spacingRight=4;overflow=hidden;rotatable=0;points=[[0,0.5],[1,0.5]];portConstraint=eastwest;whiteSpace=wrap;html=1;fontColor=#3a3636;" vertex="1" parent="1">
                    <mxGeometry x="430" y="40" width="60" height="26" as="geometry"/>
                </mxCell>
                <mxCell id="39" value="&lt;h1&gt;Histoire&lt;/h1&gt;&lt;p&gt;Lorem ipsum dolor sit amet, consectetur adipisicing elit, sed do eiusmod tempor incididunt ut labore et dolore magna aliqua.&lt;/p&gt;" style="text;html=1;strokeColor=none;fillColor=none;spacing=5;spacingTop=-20;whiteSpace=wrap;overflow=hidden;rounded=0;fontColor=#3a3636;" vertex="1" parent="1">
                    <mxGeometry x="110" y="665" width="190" height="120" as="geometry"/>
                </mxCell>
                <mxCell id="40" value="&lt;h1 style=&quot;font-size: 15px;&quot;&gt;&lt;font style=&quot;font-size: 15px;&quot; color=&quot;#000000&quot;&gt;Histoire&lt;/font&gt;&lt;/h1&gt;&lt;p style=&quot;&quot;&gt;&lt;font style=&quot;font-size: 5px;&quot; color=&quot;#000000&quot;&gt;Lorem ipsum d et dolore magna aliqua.&lt;/font&gt;&lt;/p&gt;" style="text;html=1;strokeColor=none;fillColor=#f9f7ed;spacing=5;spacingTop=-20;whiteSpace=wrap;overflow=hidden;rounded=0;" vertex="1" parent="1">
                    <mxGeometry x="355" y="130" width="70" height="70" as="geometry"/>
                </mxCell>
                <mxCell id="43" value="&lt;br&gt;&lt;h1 style=&quot;border-color: rgb(0, 0, 0); color: rgb(240, 240, 240); font-family: Helvetica; font-style: normal; font-variant-ligatures: normal; font-variant-caps: normal; letter-spacing: normal; orphans: 2; text-indent: 0px; text-transform: none; widows: 2; word-spacing: 0px; -webkit-text-stroke-width: 0px; background-color: rgb(42, 37, 47); text-decoration-thickness: initial; text-decoration-style: initial; text-decoration-color: initial; text-align: center;&quot;&gt;&lt;br&gt;&lt;/h1&gt;&lt;br&gt;" style="rounded=0;whiteSpace=wrap;html=1;fontColor=#000000;fillColor=#FF9933;gradientDirection=south;strokeColor=#BD7000;gradientColor=default;" vertex="1" parent="1">
                    <mxGeometry x="520" y="40" width="120" height="300" as="geometry"/>
                </mxCell>
                <mxCell id="44" value="&lt;h1 style=&quot;font-size: 15px;&quot;&gt;&lt;font style=&quot;font-size: 15px;&quot; color=&quot;#000000&quot;&gt;Histoire&lt;/font&gt;&lt;/h1&gt;&lt;p style=&quot;&quot;&gt;&lt;font style=&quot;font-size: 5px;&quot; color=&quot;#000000&quot;&gt;Lorem ipsum d et dolore magna aliqua.&lt;/font&gt;&lt;/p&gt;" style="text;html=1;strokeColor=none;fillColor=#f9f7ed;spacing=5;spacingTop=-20;whiteSpace=wrap;overflow=hidden;rounded=0;" vertex="1" parent="1">
                    <mxGeometry x="560" y="90" width="70" height="100" as="geometry"/>
                </mxCell>
                <mxCell id="45" value="Actor" style="shape=umlActor;verticalLabelPosition=bottom;verticalAlign=top;html=1;outlineConnect=0;fontColor=#ffffff;fillColor=#e51400;gradientDirection=north;strokeColor=#B20000;" vertex="1" parent="1">
                    <mxGeometry x="520" y="210" width="75" height="120" as="geometry"/>
                </mxCell>
                <mxCell id="46" value="menu" style="text;strokeColor=none;fillColor=none;align=left;verticalAlign=top;spacingLeft=4;spacingRight=4;overflow=hidden;rotatable=0;points=[[0,0.5],[1,0.5]];portConstraint=eastwest;whiteSpace=wrap;html=1;fontColor=#3a3636;" vertex="1" parent="1">
                    <mxGeometry x="590" y="40" width="60" height="26" as="geometry"/>
                </mxCell>
                <mxCell id="47" value="&lt;font color=&quot;#000000&quot;&gt;welcome&lt;/font&gt;" style="rounded=1;whiteSpace=wrap;html=1;fillColor=#f9f7ed;gradientDirection=north;strokeColor=none;" vertex="1" parent="1">
                    <mxGeometry x="265" y="530" width="255" height="40" as="geometry"/>
                </mxCell>
            </root>
        </mxGraphModel>
    </diagram>
</mxfile>